<svg xmlns="http://www.w3.org/2000/svg" xmlns:xlink="http://www.w3.org/1999/xlink" width="200" zoomAndPan="magnify" viewBox="0 0 150 67.499998" height="90" preserveAspectRatio="xMidYMid meet" version="1.0"><defs><g/><clipPath id="1dbd21ab91"><path d="M 80.753906 0 L 120.957031 0 L 120.957031 67 L 80.753906 67 Z M 80.753906 0 " clip-rule="nonzero"/></clipPath></defs><g clip-path="url(#1dbd21ab91)"><path fill="#438bc8" d="M 119.191406 17.300781 L 119.191406 24.886719 L 120.949219 24.886719 L 120.949219 17.300781 Z M 104.398438 21.972656 L 110.125 21.972656 L 110.125 20.214844 L 104.398438 20.214844 Z M 91.84375 21.972656 L 97.570312 21.972656 L 97.570312 20.214844 L 91.84375 20.214844 Z M 97.421875 26.003906 L 99.890625 24 C 100.460938 23.535156 101.253906 23.535156 101.820312 24 L 104.289062 26.003906 L 112.59375 26.003906 L 112.59375 16.183594 L 89.117188 16.183594 L 89.117188 26.003906 Z M 88.992188 33.265625 L 112.722656 33.265625 C 115.246094 33.265625 117.308594 31.207031 117.308594 28.683594 L 117.308594 13.507812 C 117.308594 10.980469 115.246094 8.921875 112.722656 8.921875 L 104.652344 8.921875 L 104.652344 6.863281 L 101.691406 6.863281 L 101.691406 4.339844 L 101.882812 4.238281 C 102.628906 3.855469 103.101562 3.085938 103.101562 2.242188 C 103.101562 1.007812 102.089844 0 100.855469 0 C 99.621094 0 98.613281 1.011719 98.613281 2.246094 C 98.613281 3.085938 99.085938 3.855469 99.832031 4.238281 L 100.023438 4.339844 L 100.023438 6.863281 L 97.0625 6.863281 L 97.0625 8.921875 L 88.992188 8.921875 C 86.46875 8.921875 84.40625 10.980469 84.40625 13.507812 L 84.40625 28.683594 C 84.40625 31.207031 86.464844 33.265625 88.992188 33.265625 Z M 91.207031 59.785156 L 91.621094 59.785156 L 91.621094 53.929688 L 110.097656 53.929688 L 110.097656 59.785156 L 91.617188 59.785156 L 91.617188 67 L 94.796875 67 C 100.769531 67 106.746094 67 112.71875 67 C 115.246094 67 117.308594 64.9375 117.308594 62.414062 L 117.308594 55.332031 C 117.308594 54.496094 116.898438 53.78125 116.179688 53.355469 L 113.664062 51.867188 C 113.183594 51.582031 112.910156 51.105469 112.910156 50.546875 C 112.910156 49.992188 113.183594 49.511719 113.664062 49.230469 L 116.183594 47.738281 C 116.902344 47.316406 117.308594 46.597656 117.308594 45.765625 L 117.308594 40.867188 C 117.308594 38.34375 115.246094 36.285156 112.722656 36.285156 L 88.992188 36.285156 C 86.46875 36.285156 84.40625 36.15625 84.40625 38.683594 L 84.40625 59.785156 Z M 82.523438 24.886719 L 82.523438 17.300781 L 80.761719 17.300781 L 80.761719 24.886719 Z M 82.523438 24.886719 " fill-opacity="1" fill-rule="evenodd"/></g><g fill="#f38d74" fill-opacity="1"><g transform="translate(4.867397, 66.221356)"><g><path d="M 0 -31.140625 L 23.375 -31.140625 L 23.375 -0.046875 L 15.53125 -0.046875 L 15.53125 -7.71875 L 7.765625 -15 L 7.765625 -0.046875 L 0 -0.046875 Z M 7.765625 -15.53125 L 15.53125 -15.53125 L 15.53125 -23.328125 L 7.765625 -23.328125 Z M 7.765625 -15.53125 "/></g></g></g><g fill="#f38d74" fill-opacity="1"><g transform="translate(30.632939, 66.221356)"><g><path d="M 7.765625 -23.28125 L 0 -23.28125 L 0 -31.046875 L 23.25 -31.046875 L 23.25 -23.28125 L 15.484375 -23.28125 L 15.484375 -0.046875 L 7.765625 -0.046875 Z M 7.765625 -23.28125 "/></g></g></g><g fill="#f38d74" fill-opacity="1"><g transform="translate(56.354133, 66.221356)"><g><path d="M 23.734375 -31.140625 L 23.734375 -23.328125 L 7.71875 -23.328125 L 7.71875 -13.265625 L 7.5 -13.265625 L -0.046875 -21.109375 L -0.046875 -31.140625 Z M 15.875 -7.8125 L 15.875 -17.484375 L 16.28125 -17.484375 L 23.734375 -11.359375 L 23.734375 0 L -0.046875 0 L -0.046875 -7.8125 Z M 15.875 -7.8125 "/></g></g></g><g fill="#f38d74" fill-opacity="1"><g transform="translate(82.571228, 66.221356)"><g/></g></g><g fill="#f38d74" fill-opacity="1"><g transform="translate(95.210235, 66.221356)"><g/></g></g><g fill="#f38d74" fill-opacity="1"><g transform="translate(107.849241, 66.221356)"><g/></g></g><g fill="#f38d74" fill-opacity="1"><g transform="translate(120.491124, 66.221356)"><g><path d="M 0 -31.140625 L 23.375 -31.140625 L 23.375 -0.046875 L 15.53125 -0.046875 L 15.53125 -7.71875 L 7.765625 -15 L 7.765625 -0.046875 L 0 -0.046875 Z M 7.765625 -15.53125 L 15.53125 -15.53125 L 15.53125 -23.328125 L 7.765625 -23.328125 Z M 7.765625 -15.53125 "/></g></g></g></svg>